<?xml version="1.0" encoding="UTF-8"?> <svg xmlns="http://www.w3.org/2000/svg" width="49" height="49" viewBox="0 0 49 49" fill="none"> <path d="M24.0729 48.1458C37.2422 48.1458 48.1458 37.2186 48.1458 24.0729C48.1458 10.9036 37.2658 0 24.0965 0C22.8457 0 22.2321 0.755229 22.2321 1.98248V11.116C22.2321 12.1545 22.9401 12.9569 23.9549 12.9569C24.9934 12.9569 25.7014 12.1545 25.7014 11.116V4.08296C36.0858 4.90899 44.1101 13.4761 44.1101 24.0729C44.1101 35.2126 35.2126 44.1337 24.0729 44.1337C12.9333 44.1337 3.98855 35.2126 4.01215 24.0729C4.03575 19.0931 5.80582 14.5854 8.77954 11.116C9.48756 10.1956 9.53477 9.08635 8.75594 8.26032C7.97711 7.43429 6.67906 7.50509 5.80582 8.54353C2.21849 12.7445 0 18.1963 0 24.0729C0 37.2186 10.9272 48.1458 24.0729 48.1458Z" fill="#D0514A"></path> <path d="M27.0936 21.3352C29.3357 22.8928 29.7133 25.5125 27.8489 27.4714C25.9372 29.3123 23.3175 28.911 21.7362 26.669L13.0275 14.1841C12.2015 13.0276 13.4287 11.7768 14.6088 12.6028L27.0936 21.3352Z" fill="#D0514A"></path> </svg> 